<?xml version="1.0" encoding="UTF-8"?>
<svg version="1.1" xmlns="http://www.w3.org/2000/svg" width="992" height="988">
<path d="M0 0 C327.36 0 654.72 0 992 0 C992 326.04 992 652.08 992 988 C664.64 988 337.28 988 0 988 C0 661.96 0 335.92 0 0 Z " fill="#FEFEFE" transform="translate(0,0)"/>
<path d="M0 0 C19.40850805 4.47888647 35.90767529 16.41798231 50 30 C50.78117188 30.70640625 51.56234375 31.4128125 52.3671875 32.140625 C72.62651075 51.03010077 83.85551765 79.33856933 89 106 C89.22558594 107.10214844 89.45117188 108.20429688 89.68359375 109.33984375 C95.93867795 146.30954832 88.42209187 184.73051563 72 218 C71.6297168 218.75829102 71.25943359 219.51658203 70.87792969 220.29785156 C51.90772742 258.79176333 18.16941784 291.20815657 -22.55859375 305.65234375 C-37.61983567 310.76774408 -51.70239535 313.23506081 -67.625 313.3125 C-68.74011963 313.31813965 -69.85523926 313.3237793 -71.00415039 313.32958984 C-76.7124576 313.27855717 -81.61505222 312.93642105 -87 311 C-84.91331835 308.91331835 -83.61999547 308.31609378 -80.9140625 307.2578125 C-56.72611012 297.5194133 -36.79016832 283.89664983 -18 266 C-17.17113281 265.23558594 -16.34226562 264.47117187 -15.48828125 263.68359375 C7.94994383 241.37765008 23.25928173 211.4703373 33 181 C33.23847656 180.26201172 33.47695313 179.52402344 33.72265625 178.76367188 C44.78935636 143.88775696 46.26102302 104.04277671 35 69 C34.56369239 67.57555443 34.12750042 66.15107343 33.69140625 64.7265625 C26.82721852 42.80160933 16.93438382 21.19574351 1.546875 3.8984375 C0 2 0 2 0 0 Z " fill="#050203" transform="translate(499,253)"/>
<path d="M0 0 C15.89636734 2.75958637 29.6887136 13.01539335 41 24 C41.61101562 24.54914063 42.22203125 25.09828125 42.8515625 25.6640625 C63.63316583 44.92737518 73.21241564 76.07422584 74.296875 103.4921875 C75.33574972 143.58838904 62.86142688 182.27414153 35.09277344 211.7434082 C33.73159478 213.16522637 32.36585724 214.58267568 31 216 C30.23429687 216.84046875 29.46859375 217.6809375 28.6796875 218.546875 C10.6545642 237.73293845 -17.54118439 252.72198841 -44.13696289 254.17089844 C-47.38558002 254.23080794 -50.62610111 254.22441931 -53.875 254.1875 C-54.97585938 254.18685547 -56.07671875 254.18621094 -57.2109375 254.18554688 C-61.96124761 254.15960465 -66.35211389 254.05729653 -71 253 C-67.59120467 250.11629688 -63.83967468 248.59360846 -59.75 246.9375 C-39.1698354 238.2342337 -18.95882238 223.45546576 -5 206 C-4.35442139 205.19828369 -4.35442139 205.19828369 -3.69580078 204.38037109 C24.36574882 169.22978796 38.29086299 124.59601306 33.50390625 79.62890625 C29.93046396 51.70381464 19.56153017 25.43333775 1.90625 3.44921875 C0 1 0 1 0 0 Z " fill="#070304" transform="translate(456,268)"/>
<path d="M0 0 C13.29337833 1.50414373 24.00942445 10.78366406 33 20 C33.73863281 20.72960937 34.47726562 21.45921875 35.23828125 22.2109375 C44.55647027 31.94527865 50.24244836 44.19016486 54 57 C54.3196875 58.07765625 54.639375 59.1553125 54.96875 60.265625 C61.49675644 86.74031776 56.56510939 113.85313288 45 138 C44.505 139.04800781 44.01 140.09601563 43.5 141.17578125 C35.15854849 157.55061931 20.83786186 173.63177717 5 183 C3.88238281 183.66515625 2.76476562 184.3303125 1.61328125 185.015625 C-12.76908711 193.2611091 -27.195816 197.17603231 -43.8125 197.1875 C-44.76576172 197.19974609 -45.71902344 197.21199219 -46.70117188 197.22460938 C-47.61060547 197.22654297 -48.52003906 197.22847656 -49.45703125 197.23046875 C-50.6941687 197.23663208 -50.6941687 197.23663208 -51.95629883 197.24291992 C-54 197 -54 197 -56 195 C-55.030625 194.61070312 -54.06125 194.22140625 -53.0625 193.8203125 C-38.40434643 187.77027128 -25.32626353 180.23601442 -14 169 C-12.7315625 167.7934375 -12.7315625 167.7934375 -11.4375 166.5625 C-10.633125 165.716875 -9.82875 164.87125 -9 164 C-8.01966797 162.99453125 -8.01966797 162.99453125 -7.01953125 161.96875 C12.93521257 140.81191318 25.88736615 109.59326129 26.25 80.4375 C26.18284104 78.29109957 26.09854224 76.1451887 26 74 C25.98066406 72.70964844 25.96132813 71.41929687 25.94140625 70.08984375 C25.35328258 45.88017336 16.05694022 22.31123558 1.5390625 3.1171875 C0 1 0 1 0 0 Z " fill="#080305" transform="translate(420,293)"/>
<path d="M0 0 C4.69557647 -0.09954745 9.39052663 -0.17178467 14.08691406 -0.21972656 C15.68142408 -0.23973053 17.27586178 -0.26694301 18.87011719 -0.30175781 C35.37589879 -0.65294466 35.37589879 -0.65294466 42 4 C46.76270412 9.12906598 47.29487989 12.42024921 47.21484375 19.25 C46.72508139 25.51895824 42.61892033 30.10956712 39 35 C39.87011719 35.52787109 39.87011719 35.52787109 40.7578125 36.06640625 C47.25643504 40.17362149 54.16256575 45.09903273 56 53 C56.79902802 60.07888883 55.96796305 65.99232561 52 72 C46.77275797 77.9558178 41.07601425 81.63496777 33.12109375 82.20703125 C29.40607138 82.25527829 25.71060924 82.1585523 22 82 C21.1126416 81.96326172 20.2252832 81.92652344 19.31103516 81.88867188 C13.20540658 81.62828629 7.10232602 81.32843896 1 81 C1 80.34 1 79.68 1 79 C3.97 78.505 3.97 78.505 7 78 C7.79990675 73.78152036 8.12632316 69.79849804 8.12939453 65.50732422 C8.13254669 64.23936005 8.13569885 62.97139587 8.13894653 61.66500854 C8.13715686 60.29490117 8.13510593 58.92479412 8.1328125 57.5546875 C8.13348682 56.13794946 8.13445792 54.72121153 8.13571167 53.30447388 C8.13718164 50.34408459 8.13505601 47.38372559 8.13037109 44.42333984 C8.12466376 40.63265013 8.12796358 36.84203107 8.13394356 33.05134392 C8.13755919 30.1293993 8.13640615 27.2074714 8.13381577 24.28552628 C8.13314982 22.88770667 8.13396331 21.48988554 8.13629532 20.09206772 C8.13883939 18.13934102 8.13427326 16.18660898 8.12939453 14.23388672 C8.12859894 13.12391327 8.12780334 12.01393982 8.12698364 10.87033081 C8.01767948 8.39962588 7.71893254 6.3535797 7 4 C4.69 3.34 2.38 2.68 0 2 C0 1.34 0 0.68 0 0 Z " fill="#130706" transform="translate(483,607)"/>
<path d="M0 0 C4.69560343 -0.07466101 9.39085443 -0.12884101 14.08691406 -0.16479492 C15.68137641 -0.17979745 17.27579808 -0.20020621 18.87011719 -0.22631836 C21.17393077 -0.26308134 23.4771946 -0.27981155 25.78125 -0.29296875 C26.48366821 -0.30845261 27.18608643 -0.32393646 27.90979004 -0.33988953 C33.82542087 -0.34186047 39.3964776 0.82628111 44.05859375 4.71875 C44.74115234 5.60046875 44.74115234 5.60046875 45.4375 6.5 C45.91058594 7.0878125 46.38367188 7.675625 46.87109375 8.28125 C49.45637495 12.21731826 49.55995384 16.45727589 49 21 C47.52861707 25.97747826 45.50628295 29.778568 41.6875 33.3125 C40.800625 34.199375 39.91375 35.08625 39 36 C39.2244908 39.61430194 41.18883656 41.78531577 43.4375 44.5 C44.15550781 45.36882813 44.87351562 46.23765625 45.61328125 47.1328125 C46.40089844 48.07898438 47.18851563 49.02515625 48 50 C48.84938052 51.05851454 49.69699935 52.1184448 50.54296875 53.1796875 C51.40323053 54.24512712 52.26390085 55.31023703 53.125 56.375 C53.91132812 57.35210938 54.69765625 58.32921875 55.5078125 59.3359375 C59.19905112 63.2817443 63.02927266 66.14398745 68.375 67.25 C70.169375 67.62125 70.169375 67.62125 72 68 C72 68.33 72 68.66 72 69 C69.29057607 69.10861833 66.585561 69.18758577 63.875 69.25 C63.11445312 69.28351563 62.35390625 69.31703125 61.5703125 69.3515625 C54.99466876 69.46493567 51.56997135 67.47428093 46.796875 62.87890625 C41.58086471 56.97605491 36.71157951 50.87399777 31.96875 44.58984375 C30.2407515 42.19575165 30.2407515 42.19575165 29 41 C26.81707226 40.76518307 24.62796826 40.58636677 22.4375 40.4375 C21.23996094 40.35371094 20.04242187 40.26992188 18.80859375 40.18359375 C17.41833984 40.09271484 17.41833984 40.09271484 16 40 C16.1395053 43.39612414 16.28772322 46.79181458 16.4375 50.1875 C16.47681641 51.14720703 16.51613281 52.10691406 16.55664062 53.09570312 C16.59853516 54.02705078 16.64042969 54.95839844 16.68359375 55.91796875 C16.72025146 56.77156982 16.75690918 57.6251709 16.79467773 58.50463867 C17.00531094 61.06454594 17.44841536 63.49333243 18 66 C20.31 66.66 22.62 67.32 25 68 C25 68.33 25 68.66 25 69 C17.08 69 9.16 69 1 69 C2.65 67.35 4.3 65.7 6 64 C6.71534265 61.08957055 6.71534265 61.08957055 6.56762695 57.92456055 C6.5672493 56.72369308 6.56687164 55.52282562 6.56648254 54.28556824 C6.54067612 52.99894791 6.51486969 51.71232758 6.48828125 50.38671875 C6.47894787 49.04866357 6.47183423 47.71059123 6.46684265 46.37251282 C6.44781319 42.86217514 6.39875053 39.35288302 6.34332275 35.84295654 C6.29204083 32.25677635 6.26930974 28.67042608 6.24414062 25.08398438 C6.19062549 18.0555619 6.10536371 11.02783124 6 4 C4.02 3.34 2.04 2.68 0 2 C0 1.34 0 0.68 0 0 Z " fill="#160A08" transform="translate(555,619)"/>
<path d="M0 0 C5.81663796 -0.04972466 11.63315004 -0.08587252 17.44995117 -0.10986328 C19.42555906 -0.1198729 21.40115231 -0.13348469 23.37670898 -0.15087891 C26.22904082 -0.17535009 29.08117547 -0.18653376 31.93359375 -0.1953125 C32.80584091 -0.20563507 33.67808807 -0.21595764 34.57676697 -0.22659302 C45.41348006 -0.2285414 54.28313942 2.21379114 62.6875 9.25 C69.79544928 17.70269644 73.64206588 25.48954182 73.3203125 36.796875 C71.71526743 47.83645328 66.50167543 56.89799065 58 64 C51.1974584 68.32523807 43.97877987 70.25823991 35.921875 70.23046875 C35.26979065 70.23001053 34.6177063 70.22955231 33.94586182 70.2290802 C32.57440355 70.22607971 31.20294801 70.21826023 29.83154297 70.20581055 C27.76907793 70.18766782 25.70706752 70.18530069 23.64453125 70.18554688 C16.04960276 70.16465157 8.54857949 69.86448545 1 69 C1 68.34 1 67.68 1 67 C1.639375 66.71125 2.27875 66.4225 2.9375 66.125 C5.15206079 65.17176549 5.15206079 65.17176549 6 63 C6.09110781 61.12080452 6.11752837 59.23833208 6.11352539 57.35693359 C6.11344986 56.17586029 6.11337433 54.99478699 6.11329651 53.77792358 C6.10555458 51.85757797 6.10555458 51.85757797 6.09765625 49.8984375 C6.09553383 47.93833237 6.09553383 47.93833237 6.09336853 45.93862915 C6.08954894 42.46323742 6.07972342 38.98788743 6.06866455 35.51251221 C6.05843843 31.96668055 6.05386833 28.42084215 6.04882812 24.875 C6.03810066 17.91664951 6.02103092 10.95832676 6 4 C4.02 3.34 2.04 2.68 0 2 C0 1.34 0 0.68 0 0 Z M17 5 C16.88537231 6.76337679 16.84036979 8.53132671 16.82299805 10.29833984 C16.81016281 11.4297641 16.79732758 12.56118835 16.78410339 13.72689819 C16.77671646 14.95913116 16.76932953 16.19136414 16.76171875 17.4609375 C16.753647 18.71758209 16.74557526 19.97422668 16.73725891 21.26895142 C16.72339826 23.93389595 16.71238747 26.5987159 16.70483398 29.26367188 C16.69376625 32.67933718 16.65936786 36.09435154 16.61966228 39.50978661 C16.58725254 42.76427274 16.5827218 46.01881456 16.57421875 49.2734375 C16.55671066 50.50162201 16.53920258 51.72980652 16.52116394 52.99520874 C16.52408951 54.13293732 16.52701508 55.27066589 16.5300293 56.44287109 C16.52416306 57.44579193 16.51829681 58.44871277 16.51225281 59.48202515 C16.77479309 62.12822105 16.77479309 62.12822105 18.86921692 63.80435181 C25.75678643 67.66917977 35.93890693 66.7963667 43.3125 64.75 C50.38913261 62.33522489 56.00686762 58.372521 60 52 C64.05209163 41.96841734 64.06344564 33.03603086 60.3828125 22.93359375 C56.29916958 14.27027218 49.7830588 9.37700807 41 6 C36.00664677 4.22270478 21.0997216 0.9002784 17 5 Z " fill="#120907" transform="translate(667,619)"/>
<path d="M0 0 C5.81663796 -0.04972466 11.63315004 -0.08587252 17.44995117 -0.10986328 C19.42555906 -0.1198729 21.40115231 -0.13348469 23.37670898 -0.15087891 C26.22904082 -0.17535009 29.08117547 -0.18653376 31.93359375 -0.1953125 C32.80584091 -0.20563507 33.67808807 -0.21595764 34.57676697 -0.22659302 C45.41348006 -0.2285414 54.28313942 2.21379114 62.6875 9.25 C69.79544928 17.70269644 73.64206588 25.48954182 73.3203125 36.796875 C71.71526743 47.83645328 66.50167543 56.89799065 58 64 C51.1974584 68.32523807 43.97877987 70.25823991 35.921875 70.23046875 C35.26979065 70.23001053 34.6177063 70.22955231 33.94586182 70.2290802 C32.57440355 70.22607971 31.20294801 70.21826023 29.83154297 70.20581055 C27.76907793 70.18766782 25.70706752 70.18530069 23.64453125 70.18554688 C16.04960276 70.16465157 8.54857949 69.86448545 1 69 C1 68.34 1 67.68 1 67 C1.639375 66.71125 2.27875 66.4225 2.9375 66.125 C5.15206079 65.17176549 5.15206079 65.17176549 6 63 C6.09110781 61.12080452 6.11752837 59.23833208 6.11352539 57.35693359 C6.11344986 56.17586029 6.11337433 54.99478699 6.11329651 53.77792358 C6.10555458 51.85757797 6.10555458 51.85757797 6.09765625 49.8984375 C6.09553383 47.93833237 6.09553383 47.93833237 6.09336853 45.93862915 C6.08954894 42.46323742 6.07972342 38.98788743 6.06866455 35.51251221 C6.05843843 31.96668055 6.05386833 28.42084215 6.04882812 24.875 C6.03810066 17.91664951 6.02103092 10.95832676 6 4 C4.02 3.34 2.04 2.68 0 2 C0 1.34 0 0.68 0 0 Z M17 5 C16.88537231 6.76337679 16.84036979 8.53132671 16.82299805 10.29833984 C16.81016281 11.4297641 16.79732758 12.56118835 16.78410339 13.72689819 C16.77671646 14.95913116 16.76932953 16.19136414 16.76171875 17.4609375 C16.753647 18.71758209 16.74557526 19.97422668 16.73725891 21.26895142 C16.72339826 23.93389595 16.71238747 26.5987159 16.70483398 29.26367188 C16.69376625 32.67933718 16.65936786 36.09435154 16.61966228 39.50978661 C16.58725254 42.76427274 16.5827218 46.01881456 16.57421875 49.2734375 C16.55671066 50.50162201 16.53920258 51.72980652 16.52116394 52.99520874 C16.52408951 54.13293732 16.52701508 55.27066589 16.5300293 56.44287109 C16.52416306 57.44579193 16.51829681 58.44871277 16.51225281 59.48202515 C16.77479309 62.12822105 16.77479309 62.12822105 18.86921692 63.80435181 C25.75678643 67.66917977 35.93890693 66.7963667 43.3125 64.75 C50.38913261 62.33522489 56.00686762 58.372521 60 52 C64.05209163 41.96841734 64.06344564 33.03603086 60.3828125 22.93359375 C56.29916958 14.27027218 49.7830588 9.37700807 41 6 C36.00664677 4.22270478 21.0997216 0.9002784 17 5 Z " fill="#120907" transform="translate(394,619)"/>
<path d="M0 0 C7.97778951 4.90516937 14.73088907 11.70630099 17 21 C18.28776065 31.75330839 18.10159979 42.70362999 12 52 C5.66688241 59.95843096 -1.94673198 65.81038528 -12 68 C-23.43610244 68.99247956 -34.18580642 69.13080552 -43.640625 62.01171875 C-52.16446142 54.796366 -57.33967556 47.5323055 -58.3359375 36.16796875 C-58.44966643 24.57899056 -56.62300129 16.22332485 -49.125 7.109375 C-36.55374134 -5.36944793 -15.71096488 -8.67181026 0 0 Z M-43 10 C-48.73435102 19.85643522 -49.25809281 30.20366391 -46.875 41.25 C-45.31156246 46.84622971 -42.98185156 50.80215177 -39 55 C-38.4740625 55.56589844 -37.948125 56.13179687 -37.40625 56.71484375 C-32.02143313 61.90916002 -25.84620876 63.51048252 -18.5625 64.4375 C-10.57994946 63.45718678 -3.79879165 60.93160455 1.6328125 54.86328125 C7.91484392 46.30176986 7.90147819 35.18821444 7 25 C5.12474457 15.71409662 0.31910428 9.41929089 -7 3.625 C-19.29788658 -3.03635523 -33.96615644 -0.86982101 -43 10 Z " fill="#180B09" transform="translate(194,622)"/>
<path d="M0 0 C4.35432986 0.85423184 6.21445655 2.87681742 9.3125 6.0625 C10.21613281 6.98160156 11.11976563 7.90070312 12.05078125 8.84765625 C14.17469556 11.07773042 16.19513996 13.3768505 18.19921875 15.71484375 C22.70470152 20.90277011 27.60935416 25.67852878 32.5 30.5 C37.99442158 35.91670699 43.39773567 41.32233563 48.41210938 47.18945312 C50.81412652 49.92828448 53.39314145 52.45672336 56 55 C56.1593085 38.64432779 55.67055824 22.34129019 55 6 C52.36 5.01 49.72 4.02 47 3 C47 2.34 47 1.68 47 1 C54.26 1 61.52 1 69 1 C69 1.66 69 2.32 69 3 C68.195625 3.2475 67.39125 3.495 66.5625 3.75 C63.89796492 4.68862927 63.89796492 4.68862927 63.35267639 6.69403076 C62.91877675 9.531077 62.83552369 12.27462084 62.79467773 15.14550781 C62.77473251 16.38649231 62.75478729 17.62747681 62.73423767 18.90606689 C62.71725607 20.255085 62.70037717 21.60410441 62.68359375 22.953125 C62.66301124 24.33746951 62.64201443 25.72180792 62.62062073 27.10614014 C62.56553393 30.742544 62.51606586 34.37900333 62.46777344 38.01550293 C62.41746036 41.72913525 62.36182558 45.44268744 62.30664062 49.15625 C62.19922296 56.43743206 62.09774192 63.71868094 62 71 C58.46839848 69.65349189 56.03386559 68.42460221 53.29296875 65.8046875 C52.29511353 64.8602478 52.29511353 64.8602478 51.27709961 63.89672852 C50.58753174 63.22955811 49.89796387 62.5623877 49.1875 61.875 C48.47408447 61.19429443 47.76066895 60.51358887 47.02563477 59.81225586 C45.00911629 57.88290079 43.00272056 55.94366052 41 54 C40.14921875 53.17886719 39.2984375 52.35773437 38.421875 51.51171875 C35.41571554 48.55881802 32.56693069 45.52980812 29.83203125 42.32421875 C25.84753657 37.74829623 21.57610323 33.50060405 17.25 29.25 C15.75284743 27.77843978 14.25796734 26.30456316 12.765625 24.828125 C12.11368164 24.1877832 11.46173828 23.54744141 10.79003906 22.88769531 C9.02093941 21.02208177 7.4986495 19.08653672 6 17 C5.89066506 28.55305877 5.99448333 40.07882557 6.4375 51.625 C6.47673584 52.709021 6.51597168 53.79304199 6.55639648 54.90991211 C6.59837158 55.92190674 6.64034668 56.93390137 6.68359375 57.9765625 C6.72025146 58.87455566 6.75690918 59.77254883 6.79467773 60.69775391 C6.92499738 63.15950087 6.92499738 63.15950087 8 66 C11.51190809 67.22969878 11.51190809 67.22969878 15 68 C15 68.66 15 69.32 15 70 C7.41 70 -0.18 70 -8 70 C-8 69.34 -8 68.68 -8 68 C-7.030625 67.71125 -6.06125 67.4225 -5.0625 67.125 C-1.89335797 66.35785318 -1.89335797 66.35785318 -1 64 C-0.87962039 61.96839528 -0.82260878 59.9329256 -0.79467773 57.89794922 C-0.77473251 56.61677216 -0.75478729 55.33559509 -0.73423767 54.01559448 C-0.71725331 52.61196006 -0.70037451 51.20832437 -0.68359375 49.8046875 C-0.6630246 48.37264403 -0.64202814 46.94060663 -0.62062073 45.50857544 C-0.56539597 41.73733437 -0.51598853 37.96603848 -0.46777344 34.19470215 C-0.41756133 30.34719964 -0.36187376 26.49977687 -0.30664062 22.65234375 C-0.19905413 15.10163 -0.09761029 7.55085 0 0 Z " fill="#130807" transform="translate(312,618)"/>
<path d="M0 0 C1.00426025 0.00837891 2.00852051 0.01675781 3.04321289 0.02539062 C10.1234272 0.14004068 16.69638821 0.79390016 23.625 2.3125 C23.625 7.9225 23.625 13.5325 23.625 19.3125 C22.965 19.3125 22.305 19.3125 21.625 19.3125 C21.45484375 18.76980469 21.2846875 18.22710938 21.109375 17.66796875 C20.86703125 16.95253906 20.6246875 16.23710938 20.375 15.5 C20.02695312 14.43845703 20.02695312 14.43845703 19.671875 13.35546875 C17.98921475 10.07176983 15.67289995 8.74409269 12.3203125 7.36328125 C0.75633067 4.041712 -9.07774236 3.80011821 -19.8515625 9.51171875 C-25.73229718 13.70834211 -28.43763264 19.52674663 -30.375 26.3125 C-31.75079935 35.7919087 -29.39276824 46.65823296 -23.86328125 54.50390625 C-17.1094069 62.71137035 -9.3605411 66.37372359 1.25 67.62109375 C6.09236746 67.76014822 8.75792122 66.93485959 13.625 65.3125 C13.625 57.0625 13.625 48.8125 13.625 40.3125 C10.16 38.8275 10.16 38.8275 6.625 37.3125 C6.625 36.6525 6.625 35.9925 6.625 35.3125 C14.545 35.3125 22.465 35.3125 30.625 35.3125 C30.625 35.9725 30.625 36.6325 30.625 37.3125 C29.820625 37.60125 29.01625 37.89 28.1875 38.1875 C25.4923532 39.04512568 25.4923532 39.04512568 24.625 41.3125 C24.47088894 43.3432477 24.37517547 45.37856421 24.30859375 47.4140625 C24.26669922 48.62578125 24.22480469 49.8375 24.18164062 51.0859375 C24.14232422 52.35695313 24.10300781 53.62796875 24.0625 54.9375 C23.99772461 56.855625 23.99772461 56.855625 23.93164062 58.8125 C23.82530114 61.97905348 23.72327167 65.14568753 23.625 68.3125 C16.16760944 71.47520446 9.78235274 72.97739382 1.6875 72.8125 C0.7281958 72.80041504 -0.2311084 72.78833008 -1.21948242 72.77587891 C-13.00313137 72.44647576 -23.75377013 69.18554398 -32.12109375 60.5 C-39.74334777 51.07197507 -41.60828562 41.20360364 -40.65429688 29.36181641 C-39.48106823 20.75335378 -35.1153059 13.1292473 -28.41015625 7.73046875 C-19.58317713 1.35456644 -10.72946453 -0.19350124 0 0 Z " fill="#170A08" transform="translate(792.375,617.6875)"/>
<path d="M0 0 C7.59 0 15.18 0 23 0 C23 0.66 23 1.32 23 2 C21.35 2.33 19.7 2.66 18 3 C17.92538512 9.22555982 17.8711791 15.45085456 17.83520508 21.67675781 C17.82019513 23.7910618 17.7997808 25.90533507 17.77368164 28.01953125 C17.73695367 31.07299421 17.72019526 34.12604257 17.70703125 37.1796875 C17.69154739 38.11239471 17.67606354 39.04510193 17.66011047 40.006073 C17.65839647 46.81525212 18.07323162 54.53577935 22.64533997 59.94747925 C27.03875929 64.03879294 31.3575385 65.70085342 37.3125 66.375 C43.28244301 65.76788715 48.16841821 63.83158179 52.4375 59.5625 C57.12109439 51.8814052 57.14885655 43.88405697 57.09765625 35.12890625 C57.09553383 33.74541237 57.09553383 33.74541237 57.09336853 32.33396912 C57.08780506 29.41011202 57.07525942 26.48633365 57.0625 23.5625 C57.05748028 21.57096465 57.0529182 19.5794281 57.04882812 17.58789062 C57.03784762 12.72523044 57.02060839 7.86262853 57 3 C54.69 2.67 52.38 2.34 50 2 C50 1.34 50 0.68 50 0 C56.93 0 63.86 0 71 0 C71 0.66 71 1.32 71 2 C69.35 2.33 67.7 2.66 66 3 C65.98018066 4.25546631 65.96036133 5.51093262 65.93994141 6.80444336 C65.86344064 11.49555344 65.77479417 16.1863712 65.68261719 20.87719727 C65.64451021 22.90122678 65.60962662 24.9253198 65.578125 26.94946289 C65.53207489 29.87148627 65.47414916 32.79307924 65.4140625 35.71484375 C65.40251129 36.60896469 65.39096008 37.50308563 65.37905884 38.42430115 C65.16867806 47.53225355 63.98640614 55.83742338 58 63 C49.84284725 70.58531111 41.8473295 71.57289329 31.14453125 71.3046875 C23.82742397 70.90757156 19.15848456 68.53307883 14.125 63.25 C8.18823918 56.42415905 7.5454991 48.79637028 7.48828125 40.15625 C7.47033005 39.14655151 7.45237885 38.13685303 7.43388367 37.09655762 C7.38005901 33.89774651 7.34597429 30.69908223 7.3125 27.5 C7.27930237 25.32029219 7.24481047 23.14060369 7.20898438 20.9609375 C7.12434889 15.64075676 7.05588215 10.32055633 7 5 C4.69 4.01 2.38 3.02 0 2 C0 1.34 0 0.68 0 0 Z " fill="#120806" transform="translate(221,619)"/>
<path d="M0 0 C0.74636719 -0.00773438 1.49273437 -0.01546875 2.26171875 -0.0234375 C3.35419922 -0.01957031 3.35419922 -0.01957031 4.46875 -0.015625 C5.12294922 -0.01336914 5.77714844 -0.01111328 6.45117188 -0.00878906 C8.5 0.25 8.5 0.25 13.5 2.25 C13.5 6.87 13.5 11.49 13.5 16.25 C12.84 15.92 12.18 15.59 11.5 15.25 C11.231875 14.13625 10.96375 13.0225 10.6875 11.875 C9.85614785 8.20718516 9.85614785 8.20718516 7.3359375 6.54296875 C3.98405167 5.01476736 1.60889425 4.8821951 -2.0625 4.9375 C-3.17753906 4.94136719 -4.29257813 4.94523438 -5.44140625 4.94921875 C-8.4179842 5.24193459 -10.08342801 5.52387715 -12.5 7.25 C-15.3774702 11.5662053 -15.30218984 16.26280089 -14.5 21.25 C-11.72885804 27.89819837 -5.2374316 31.9560353 0.30834961 36.17236328 C6.91919068 41.23025128 12.23909686 46.45587602 15.5 54.25 C16.36239811 61.38226545 16.77187773 69.2847709 12.90234375 75.60546875 C9.04344086 80.13081169 4.18201091 83.49490777 -1.5 85.25 C-4.33674511 85.46541358 -7.04183445 85.57488272 -9.875 85.5625 C-10.96941406 85.58666992 -10.96941406 85.58666992 -12.0859375 85.61132812 C-17.28034883 85.61596599 -20.8684516 84.6136455 -25.5 82.25 C-26.5 81.25 -26.5 81.25 -26.6328125 78.66796875 C-26.63023438 77.60191406 -26.62765625 76.53585937 -26.625 75.4375 C-26.62757812 74.37917969 -26.63015625 73.32085938 -26.6328125 72.23046875 C-26.52063661 69.71310983 -26.2309121 67.64576745 -25.5 65.25 C-24.84 65.25 -24.18 65.25 -23.5 65.25 C-23.35304688 65.92546875 -23.20609375 66.6009375 -23.0546875 67.296875 C-21.56678958 73.29016053 -21.56678958 73.29016053 -17.5 77.8125 C-11.62445983 80.627863 -7.10321599 81.04420149 -0.8125 79.125 C3.16650835 76.87273112 4.60597501 75.41685498 6.5 71.25 C7.53170644 65.97484013 7.11776801 61.53939868 4.375 56.875 C0.81658322 52.07665756 -3.74178279 48.42800932 -8.30834961 44.63256836 C-15.56982559 38.59601291 -22.53061645 32.50403874 -23.84765625 22.6484375 C-24.21236773 15.85919296 -22.9528744 11.41045444 -18.5 6.25 C-12.77454995 0.81082245 -7.59350001 -0.07868912 0 0 Z " fill="#180B09" transform="translate(104.5,604.75)"/>
<path d="M0 0 C-0.33 3.96 -0.66 7.92 -1 12 C-1.66 12 -2.32 12 -3 12 C-3.3403125 10.7934375 -3.3403125 10.7934375 -3.6875 9.5625 C-4.120625 8.716875 -4.55375 7.87125 -5 7 C-9.00476367 5.82212833 -13.16329728 5.70894317 -17.3125 5.4375 C-19.519375 5.293125 -21.72625 5.14875 -24 5 C-24 13.58 -24 22.16 -24 31 C-21.48375 30.87625 -18.9675 30.7525 -16.375 30.625 C-15.59431152 30.59100098 -14.81362305 30.55700195 -14.00927734 30.52197266 C-9.70136823 30.28027479 -6.06488294 29.57722587 -2 28 C-0.5447223 30.9105554 -1.36483339 32.95849052 -1.9375 36.125 C-2.13214844 37.22070312 -2.32679688 38.31640625 -2.52734375 39.4453125 C-2.76130859 40.70988281 -2.76130859 40.70988281 -3 42 C-3.99 41.505 -3.99 41.505 -5 41 C-5.33333333 39.66666667 -5.66666667 38.33333333 -6 37 C-9.16965142 35.41517429 -12.63744541 35.62147177 -16.125 35.4375 C-18.72375 35.293125 -21.3225 35.14875 -24 35 C-23.67 44.24 -23.34 53.48 -23 63 C-19.00802941 64.99598529 -17.37379905 65.27174678 -13.0625 65.25 C-12.04285156 65.25515625 -11.02320313 65.2603125 -9.97265625 65.265625 C-6.88404366 64.98963859 -4.73795225 64.4455622 -2 63 C-0.15725024 59.98303591 -0.15725024 59.98303591 1 57 C1.33 57 1.66 57 2 57 C2.05437607 58.58294782 2.09296271 60.16644256 2.125 61.75 C2.14820313 62.63171875 2.17140625 63.5134375 2.1953125 64.421875 C1.98938266 67.1401489 1.27258701 68.63096259 0 71 C-13.37590974 71.11978427 -26.65013933 70.85439108 -40 70 C-40 69.34 -40 68.68 -40 68 C-39.360625 67.71125 -38.72125 67.4225 -38.0625 67.125 C-35.84793921 66.17176549 -35.84793921 66.17176549 -35 64 C-34.90889219 62.12080452 -34.88247163 60.23833208 -34.88647461 58.35693359 C-34.88655014 57.17586029 -34.88662567 55.99478699 -34.88670349 54.77792358 C-34.89444542 52.85757797 -34.89444542 52.85757797 -34.90234375 50.8984375 C-34.90446617 48.93833237 -34.90446617 48.93833237 -34.90663147 46.93862915 C-34.91045106 43.46323742 -34.92027658 39.98788743 -34.93133545 36.51251221 C-34.94156157 32.96668055 -34.94613167 29.42084215 -34.95117188 25.875 C-34.96189934 18.91664951 -34.97896908 11.95832676 -35 5 C-36.98 4.34 -38.96 3.68 -41 3 C-41 2.34 -41 1.68 -41 1 C-35.48243025 0.85725841 -29.96485203 0.71485012 -24.44726562 0.57275391 C-22.56933356 0.52434355 -20.69140386 0.47584129 -18.81347656 0.42724609 C-16.11784468 0.35750694 -13.42220453 0.28809573 -10.7265625 0.21875 C-9.88380768 0.19687622 -9.04105286 0.17500244 -8.17276001 0.15246582 C-2.22774341 0 -2.22774341 0 0 0 Z " fill="#140908" transform="translate(879,618)"/>
<path d="M0 0 C14.11546473 -0.27475357 14.11546473 -0.27475357 20.015625 4.69921875 C26.43945806 11.56840159 28.59158953 18.10024051 28.28125 27.44921875 C27.89672936 30.93660734 27.07524507 33.16383174 25 36 C19.52027211 40.22395692 14.90247579 41.73069687 8 41 C2.7506364 39.05579126 2.7506364 39.05579126 0.84814453 36.37988281 C-0.35819753 32.99490227 -0.24593 29.71747025 -0.1953125 26.171875 C-0.1924826 25.42286926 -0.18965271 24.67386353 -0.18673706 23.90216064 C-0.1755726 21.51794224 -0.15047531 19.13410421 -0.125 16.75 C-0.11496535 15.13021377 -0.10584035 13.51042164 -0.09765625 11.890625 C-0.07564555 7.92693754 -0.04114175 3.96353319 0 0 Z " fill="#FDFCFC" transform="translate(501,644)"/>
<path d="M0 0 C7.26 0 14.52 0 22 0 C22 0.66 22 1.32 22 2 C20.35 2.66 18.7 3.32 17 4 C17 24.79 17 45.58 17 67 C20.465 67.495 20.465 67.495 24 68 C24 68.33 24 68.66 24 69 C16.08 69 8.16 69 0 69 C1.65 67.35 3.3 65.7 5 64 C5.71534265 61.08957055 5.71534265 61.08957055 5.56762695 57.92456055 C5.5672493 56.72369308 5.56687164 55.52282562 5.56648254 54.28556824 C5.54067612 52.99894791 5.51486969 51.71232758 5.48828125 50.38671875 C5.47894787 49.04866357 5.47183423 47.71059123 5.46684265 46.37251282 C5.44781319 42.86217514 5.39875053 39.35288302 5.34332275 35.84295654 C5.29204083 32.25677635 5.26930974 28.67042608 5.24414062 25.08398438 C5.19062549 18.0555619 5.10536371 11.02783124 5 4 C2.525 3.01 2.525 3.01 0 2 C0 1.34 0 0.68 0 0 Z " fill="#190E0B" transform="translate(628,619)"/>
<path d="M0 0 C4.95565242 0.06371553 8.08304771 0.76066767 12.375 3.25 C14.6875 5.6875 14.6875 5.6875 16.375 8.25 C16.7875 8.848125 17.2 9.44625 17.625 10.0625 C19.60254867 15.83035029 18.42895048 20.99816092 16.32421875 26.48828125 C14.54937948 29.7823245 12.92994605 31.06501798 9.375 32.25 C7.32421875 32.41796875 7.32421875 32.41796875 5.0625 32.4375 C4.32386719 32.45167969 3.58523438 32.46585938 2.82421875 32.48046875 C-0.18876455 32.19695039 -2.77323992 31.23727 -5.625 30.25 C-5.64965746 26.1382744 -5.66783959 22.02657722 -5.67993164 17.91479492 C-5.6849708 16.51504772 -5.69180216 15.1153058 -5.70043945 13.71557617 C-5.7125232 11.70754223 -5.71769807 9.69947043 -5.72265625 7.69140625 C-5.72789307 6.48170166 -5.73312988 5.27199707 -5.73852539 4.02563477 C-5.55524064 -0.45557888 -4.06984027 0.07377354 0 0 Z " fill="#FCF9F9" transform="translate(576.625,622.75)"/>
<path d="M0 0 C5.22322633 -0.56751352 9.63133864 -0.91687033 13.9375 2.4375 C18.14150953 6.6713252 19.8134185 11.46661276 20.125 17.3671875 C19.81626572 23.09806763 18.07517909 26.02421552 14 30 C11.25494537 31.37252731 8.99672588 31.13229255 5.9375 31.125 C4.31134766 31.12886719 4.31134766 31.12886719 2.65234375 31.1328125 C0 31 0 31 -1 30 C-1.09996094 27.95117803 -1.13080946 25.89891431 -1.1328125 23.84765625 C-1.13410156 22.59662109 -1.13539063 21.34558594 -1.13671875 20.05664062 C-1.13285156 18.73857422 -1.12898438 17.42050781 -1.125 16.0625 C-1.12886719 14.74830078 -1.13273437 13.43410156 -1.13671875 12.08007812 C-1.13542969 10.82775391 -1.13414062 9.57542969 -1.1328125 8.28515625 C-1.13168457 7.12894775 -1.13055664 5.97273926 -1.12939453 4.78149414 C-1 2 -1 2 0 0 Z " fill="#FBF9F8" transform="translate(502,611)"/>
<path d="M0 0 C0.74636719 -0.00773438 1.49273437 -0.01546875 2.26171875 -0.0234375 C3.35419922 -0.01957031 3.35419922 -0.01957031 4.46875 -0.015625 C5.12294922 -0.01336914 5.77714844 -0.01111328 6.45117188 -0.00878906 C8.5 0.25 8.5 0.25 13.5 2.25 C13.5 6.87 13.5 11.49 13.5 16.25 C12.84 15.92 12.18 15.59 11.5 15.25 C11.231875 14.13625 10.96375 13.0225 10.6875 11.875 C9.85539629 8.20827987 9.85539629 8.20827987 7.33984375 6.5390625 C3.96008155 5.0049201 1.57236295 4.91500315 -2.125 5 C-3.81496094 5.02320313 -3.81496094 5.02320313 -5.5390625 5.046875 C-8.55654478 5.12964954 -8.55654478 5.12964954 -11.5 6.25 C-11.5 4.25 -11.5 4.25 -10.5 3.25 C-11.49 2.92 -12.48 2.59 -13.5 2.25 C-8.95765731 -0.02117134 -4.95835291 -0.0513819 0 0 Z " fill="#2C1713" transform="translate(104.5,604.75)"/>
<path d="M0 0 C-0.33 0.99 -0.66 1.98 -1 3 C-11.89 2.67 -22.78 2.34 -34 2 C-33.67 2.66 -33.34 3.32 -33 4 C-32.9091762 5.78731924 -32.88246201 7.57805489 -32.88647461 9.36767578 C-32.88655014 10.48868683 -32.88662567 11.60969788 -32.88670349 12.76467896 C-32.89186478 13.97928802 -32.89702606 15.19389709 -32.90234375 16.4453125 C-32.9037587 17.68546112 -32.90517365 18.92560974 -32.90663147 20.20333862 C-32.91128904 23.50118133 -32.92027561 26.79897546 -32.93133545 30.09680176 C-32.94156269 33.46166387 -32.94613191 36.82653308 -32.95117188 40.19140625 C-32.96221731 46.79428993 -32.97896753 53.39714099 -33 60 C-33.33 60 -33.66 60 -34 60 C-34.33 41.85 -34.66 23.7 -35 5 C-36.98 4.34 -38.96 3.68 -41 3 C-41 2.34 -41 1.68 -41 1 C-35.48243025 0.85725841 -29.96485203 0.71485012 -24.44726562 0.57275391 C-22.56933356 0.52434355 -20.69140386 0.47584129 -18.81347656 0.42724609 C-16.11784468 0.35750694 -13.42220453 0.28809573 -10.7265625 0.21875 C-9.88380768 0.19687622 -9.04105286 0.17500244 -8.17276001 0.15246582 C-2.22774341 0 -2.22774341 0 0 0 Z " fill="#603129" transform="translate(879,618)"/>
<path d="M0 0 C13.86 0 27.72 0 42 0 C42 0.33 42 0.66 42 1 C30.45 1 18.9 1 7 1 C7.33 1.66 7.66 2.32 8 3 C8.0908238 4.78731924 8.11753799 6.57805489 8.11352539 8.36767578 C8.11344986 9.48868683 8.11337433 10.60969788 8.11329651 11.76467896 C8.10813522 12.97928802 8.10297394 14.19389709 8.09765625 15.4453125 C8.0962413 16.68546112 8.09482635 17.92560974 8.09336853 19.20333862 C8.08871096 22.50118133 8.07972439 25.79897546 8.06866455 29.09680176 C8.05843731 32.46166387 8.05386809 35.82653308 8.04882812 39.19140625 C8.03778269 45.79428993 8.02103247 52.39714099 8 59 C7.67 59 7.34 59 7 59 C6.67 40.85 6.34 22.7 6 4 C4.02 3.34 2.04 2.68 0 2 C0 1.34 0 0.68 0 0 Z " fill="#62332A" transform="translate(667,619)"/>
<path d="M0 0 C13.86 0 27.72 0 42 0 C42 0.33 42 0.66 42 1 C30.45 1 18.9 1 7 1 C7.33 1.66 7.66 2.32 8 3 C8.0908238 4.78731924 8.11753799 6.57805489 8.11352539 8.36767578 C8.11344986 9.48868683 8.11337433 10.60969788 8.11329651 11.76467896 C8.10813522 12.97928802 8.10297394 14.19389709 8.09765625 15.4453125 C8.0962413 16.68546112 8.09482635 17.92560974 8.09336853 19.20333862 C8.08871096 22.50118133 8.07972439 25.79897546 8.06866455 29.09680176 C8.05843731 32.46166387 8.05386809 35.82653308 8.04882812 39.19140625 C8.03778269 45.79428993 8.02103247 52.39714099 8 59 C7.67 59 7.34 59 7 59 C6.67 40.85 6.34 22.7 6 4 C4.02 3.34 2.04 2.68 0 2 C0 1.34 0 0.68 0 0 Z " fill="#62332A" transform="translate(394,619)"/>
<path d="M0 0 C4.75055432 -0.04956835 9.50095688 -0.08579909 14.25170898 -0.10986328 C15.86664453 -0.11989896 17.481562 -0.13353051 19.09643555 -0.15087891 C21.42240875 -0.17523465 23.74814095 -0.18650747 26.07421875 -0.1953125 C26.79212082 -0.20563507 27.51002289 -0.21595764 28.24967957 -0.22659302 C32.28499868 -0.22748903 35.36821174 0.21042318 39 2 C36 3 36 3 33 2 C31.0093556 1.85013589 29.01464609 1.75171962 27.01953125 1.68359375 C25.85615234 1.64169922 24.69277344 1.59980469 23.49414062 1.55664062 C22.27919922 1.51732422 21.06425781 1.47800781 19.8125 1.4375 C18.58595703 1.39431641 17.35941406 1.35113281 16.09570312 1.30664062 C13.06391619 1.2004691 10.03204685 1.09842048 7 1 C7 1.66 7 2.32 7 3 C4.69 2.67 2.38 2.34 0 2 C0 1.34 0 0.68 0 0 Z " fill="#3E1512" transform="translate(483,607)"/>
<path d="M0 0 C11.22 0 22.44 0 34 0 C34 0.33 34 0.66 34 1 C25.09 1 16.18 1 7 1 C6.67 1.99 6.34 2.98 6 4 C4.02 3.34 2.04 2.68 0 2 C0 1.34 0 0.68 0 0 Z " fill="#3E1310" transform="translate(555,619)"/>
<path d="M0 0 C7.59 0 15.18 0 23 0 C23 0.66 23 1.32 23 2 C22.195625 2.12375 21.39125 2.2475 20.5625 2.375 C19.716875 2.58125 18.87125 2.7875 18 3 C17.67 3.66 17.34 4.32 17 5 C17 4.01 17 3.02 17 2 C13.7 1.67 10.4 1.34 7 1 C7.33 1.99 7.66 2.98 8 4 C5.36 3.34 2.72 2.68 0 2 C0 1.34 0 0.68 0 0 Z " fill="#401411" transform="translate(221,619)"/>
<path d="M0 0 C7.26 0 14.52 0 22 0 C22 0.66 22 1.32 22 2 C20.02 2.66 18.04 3.32 16 4 C16 3.34 16 2.68 16 2 C12.7 1.67 9.4 1.34 6 1 C5.67 1.99 5.34 2.98 5 4 C2.525 3.01 2.525 3.01 0 2 C0 1.34 0 0.68 0 0 Z " fill="#3D1411" transform="translate(628,619)"/>
<path d="M0 0 C0 0.66 0 1.32 0 2 C5.28 2.33 10.56 2.66 16 3 C16 3.33 16 3.66 16 4 C12.54173658 4.05789006 9.08359707 4.09355821 5.625 4.125 C4.64015625 4.14175781 3.6553125 4.15851563 2.640625 4.17578125 C1.69960938 4.18222656 0.75859375 4.18867188 -0.2109375 4.1953125 C-1.51490479 4.21102295 -1.51490479 4.21102295 -2.84521484 4.22705078 C-5 4 -5 4 -7 2 C-2.25 0 -2.25 0 0 0 Z " fill="#562B24" transform="translate(371,486)"/>
<path d="M0 0 C0.66 0.33 1.32 0.66 2 1 C-1.3 4.3 -4.6 7.6 -8 11 C-8 7.0234755 -6.61988497 5.9109833 -4 3 C-1.75 1.1875 -1.75 1.1875 0 0 Z " fill="#421F1A" transform="translate(766,624)"/>
<path d="M0 0 C0.66 0.33 1.32 0.66 2 1 C2 1.99 2 2.98 2 4 C0.02 4 -1.96 4 -4 4 C-4.33 3.34 -4.66 2.68 -5 2 C-2.625 0.9375 -2.625 0.9375 0 0 Z " fill="#4E261F" transform="translate(417,561)"/>
</svg>
