<?xml version="1.0" encoding="UTF-8"?>
<svg version="1.1" xmlns="http://www.w3.org/2000/svg" width="1001" height="1001">
<path d="M0 0 C7.6517493 1.79890606 14.38605927 4.29518998 21.3125 8 C22.22257813 8.4842041 23.13265625 8.9684082 24.0703125 9.46728516 C32.10867863 13.86024656 39.2185574 18.85509013 46 25 C46.55623047 25.50257324 47.11246094 26.00514648 47.68554688 26.52294922 C75.4710586 52.05665687 90.20592202 88.8501156 92.16845703 126.20654297 C93.9544499 177.50713316 76.78260322 226.11424297 42 264 C41.53013672 264.5151416 41.06027344 265.0302832 40.57617188 265.56103516 C23.82989476 283.69895352 2.37559508 298.01988613 -21 306 C-21.64582031 306.22381348 -22.29164063 306.44762695 -22.95703125 306.67822266 C-43.71519456 313.74708264 -65.38784684 316.08189065 -87 312 C-84.29180102 308.63496172 -80.63178685 307.39954159 -76.75 305.8125 C-50.40882544 294.63518549 -25.0844269 277.43735241 -7 255 C-6.19433594 254.03191406 -5.38867188 253.06382812 -4.55859375 252.06640625 C30.11141529 209.79249818 45.86993031 156.22160782 41.58618164 101.97094727 C38.04991384 66.87400033 24.16444927 31.45620705 1.6875 4.1953125 C0 2 0 2 0 0 Z " fill="#E73B6D" transform="translate(493,283)"/>
<path d="M0 0 C17.50689045 2.30075448 31.83126184 14.00460569 44 26 C45.07894531 27.05960937 45.07894531 27.05960937 46.1796875 28.140625 C69.2623694 52.42842684 75.75305211 86.07940108 75.30859375 118.3984375 C74.60391325 141.85464907 67.45386253 164.60164113 56 185 C55.37351562 186.11632812 54.74703125 187.23265625 54.1015625 188.3828125 C36.09628125 218.88155421 7.81853849 243.01233798 -26.828125 251.9921875 C-35.91280853 254.02174446 -44.70779076 255.17257104 -54 255.125 C-54.75539063 255.12886719 -55.51078125 255.13273438 -56.2890625 255.13671875 C-61.27571793 255.12815061 -66.0634292 254.70682718 -71 254 C-71 253.34 -71 252.68 -71 252 C-69.52853516 251.38125 -69.52853516 251.38125 -68.02734375 250.75 C-26.71015989 233.17470292 5.19070519 203.17636335 22.25 161.125 C25.8503973 151.92388714 28.80980952 142.63514028 31 133 C31.16371094 132.28650391 31.32742188 131.57300781 31.49609375 130.83789062 C40.31913919 90.40500882 31.0666968 47.59906806 9 13 C6.66649937 9.62582403 4.18991972 6.38309462 1.65234375 3.16015625 C0 1 0 1 0 0 Z " fill="#E73B6D" transform="translate(450,298)"/>
<path d="M0 0 C13.37491585 2.95850673 24.4880009 10.35496594 34 20 C35.04414063 21.02867187 35.04414063 21.02867187 36.109375 22.078125 C54.45127524 41.27313688 59.47240107 67.02040649 59.21484375 92.609375 C58.53246078 121.34575092 45.70670815 148.41976755 26 169 C25.37609375 169.68707031 24.7521875 170.37414062 24.109375 171.08203125 C9.38774951 186.76241806 -13.45818887 198.08382771 -34.98925781 199.09326172 C-41.736123 199.28197431 -48.34825968 199.28710146 -55 198 C-53.37364847 194.74729693 -49.85298817 194.12810709 -46.625 192.8125 C-36.01839119 188.32522455 -26.85521242 182.3561625 -18 175 C-17.20980469 174.34515625 -16.41960937 173.6903125 -15.60546875 173.015625 C-4.00808424 163.00717349 4.7701372 151.44733535 12 138 C12.31952637 137.41025391 12.63905273 136.82050781 12.96826172 136.21289062 C27.98331995 107.92524303 31.22501377 74.26381736 22.25561523 43.58984375 C21.25126366 40.36098758 20.14200692 37.18325881 19 34 C18.63132812 32.95457031 18.26265625 31.90914063 17.8828125 30.83203125 C13.68270376 19.86829913 6.82515861 10.46715549 0 1 C0 0.67 0 0.34 0 0 Z " fill="#E73B6D" transform="translate(413,322)"/>
<path d="M0 0 C4.98037787 -0.12435639 9.95983617 -0.21469131 14.94140625 -0.2746582 C16.63297281 -0.2996766 18.32443264 -0.3337029 20.015625 -0.37719727 C31.21287869 -0.65778882 37.83925346 -0.68684296 46.4375 7.25 C48.94391708 11.66129406 49.61909169 16.08533824 48.55859375 21.078125 C46.81394399 26.14259403 43.9767909 30.57599455 41 35 C41.58007812 35.3403125 42.16015625 35.680625 42.7578125 36.03125 C49.25734093 40.06396071 54.52178826 44.56536479 57 52 C57.89045492 60.35755551 57.07098502 67.13278655 52 74 C46.37254264 79.56968059 40.39027725 82.24240192 32.39038086 82.2265625 C31.70468018 82.21367188 31.01897949 82.20078125 30.3125 82.1875 C29.22884155 82.17783203 29.22884155 82.17783203 28.12329102 82.16796875 C19.40509101 82.04886003 10.70088453 81.5348513 2 81 C2.33 80.01 2.66 79.02 3 78 C5.0625 77.3125 5.0625 77.3125 7 77 C9.05202307 69.38489553 9.29153893 62.25363265 9.265625 54.390625 C9.26849518 52.46316437 9.26849518 52.46316437 9.27142334 50.49676514 C9.27435268 47.793855 9.27014542 45.09107811 9.26074219 42.38818359 C9.24930281 38.93277616 9.25594903 35.47767798 9.26788712 32.02228165 C9.27686344 28.70753814 9.27057574 25.39287728 9.265625 22.078125 C9.26967346 20.84161194 9.27372192 19.60509888 9.27789307 18.33111572 C9.27158875 17.17931824 9.26528442 16.02752075 9.25878906 14.84082031 C9.25719788 13.83094055 9.25560669 12.82106079 9.25396729 11.78057861 C8.97914527 8.77167057 8.44857906 6.65325687 7 4 C3.46485707 2.62032476 3.46485707 2.62032476 0 2 C0 1.34 0 0.68 0 0 Z M19 6 C18.90016942 7.98757028 18.86919247 9.9786752 18.8671875 11.96875 C18.86589844 13.17917969 18.86460937 14.38960937 18.86328125 15.63671875 C18.86714844 16.91160156 18.87101562 18.18648437 18.875 19.5 C18.87113281 20.77488281 18.86726563 22.04976562 18.86328125 23.36328125 C18.86457031 24.57371094 18.86585938 25.78414062 18.8671875 27.03125 C18.86831543 28.15080078 18.86944336 29.27035156 18.87060547 30.42382812 C18.70783632 32.93141802 18.70783632 32.93141802 20 34 C27.68849194 34.90150226 27.68849194 34.90150226 34.9375 32.953125 C38.51556947 29.33245946 39.21300991 26.29700661 39.375 21.375 C39.33254844 15.48838426 38.16217223 11.27170308 34 7 C30.90411616 4.99062085 28.46638232 4.75313116 24.8125 4.8125 C23.93207031 4.81894531 23.05164063 4.82539062 22.14453125 4.83203125 C20.01852688 4.76489536 20.01852688 4.76489536 19 6 Z M19 38 C18.78041722 42.1665371 18.81421183 46.3364633 18.81469727 50.50830078 C18.81253053 52.59559117 18.79443709 54.68233589 18.77539062 56.76953125 C18.77245268 58.1093732 18.77047057 59.44921766 18.76953125 60.7890625 C18.76542236 62.00287598 18.76131348 63.21668945 18.75708008 64.46728516 C19.0166647 68.24234992 19.75451387 71.43151289 21 75 C24.00408495 77.42869228 27.17109139 77.29825129 30.9375 77.3125 C31.95714844 77.32925781 32.97679687 77.34601563 34.02734375 77.36328125 C38.64431342 76.79905237 41.18393915 74.90673428 44.25 71.5 C47.25324641 67.20964798 47.60856098 63.09357204 47 58 C44.94697963 50.39425097 42.48459329 43.99015672 35.5625 39.75 C31.64212432 37.82420142 22.67751972 34.32248028 19 38 Z " fill="#DE2626" transform="translate(476,637)"/>
<path d="M0 0 C6.22555982 -0.07461488 12.45085456 -0.1288209 18.67675781 -0.16479492 C20.7910618 -0.17980487 22.90533507 -0.2002192 25.01953125 -0.22631836 C28.07299421 -0.26304633 31.12604257 -0.27980474 34.1796875 -0.29296875 C35.57874832 -0.31619453 35.57874832 -0.31619453 37.006073 -0.33988953 C48.01788443 -0.34266142 57.43714359 2.82220915 65.53125 10.44140625 C72.16115587 17.85962409 74.40484887 26.14771401 74.2734375 35.8984375 C73.41573519 45.62723222 70.01789256 54.1482114 63 61 C53.22901131 69.12760486 43.67800206 70.46459641 31.25341797 70.28125 C29.13621115 70.25016461 27.01975625 70.24026898 24.90234375 70.234375 C17.22517648 70.18990874 9.63037958 69.87100165 2 69 C2 68.01 2 67.02 2 66 C2.639375 65.896875 3.27875 65.79375 3.9375 65.6875 C4.618125 65.460625 5.29875 65.23375 6 65 C7.05946564 61.82160309 7.12064296 59.58154652 7.11352539 56.2434082 C7.11344986 55.06241043 7.11337433 53.88141266 7.11329651 52.66462708 C7.10813522 51.38955795 7.10297394 50.11448883 7.09765625 48.80078125 C7.0962413 47.49545944 7.09482635 46.19013763 7.09336853 44.84526062 C7.0895538 41.37810344 7.07973244 37.91098826 7.06866455 34.44384766 C7.05842798 30.90462818 7.0538661 27.3654019 7.04882812 23.82617188 C7.03810923 16.88409735 7.02104534 9.94205069 7 3 C4.69 2.67 2.38 2.34 0 2 C0 1.34 0 0.68 0 0 Z M18 6 C17.89081729 7.66631753 17.85093226 9.33723296 17.83886719 11.00708008 C17.82925964 12.07521439 17.8196521 13.14334869 17.80975342 14.24385071 C17.80550354 15.40732529 17.80125366 16.57079987 17.796875 17.76953125 C17.79117493 18.95721603 17.78547485 20.14490082 17.77960205 21.36857605 C17.77013399 23.88804224 17.76361094 26.40752091 17.75976562 28.92700195 C17.75006776 32.78553884 17.71906367 36.64354159 17.6875 40.50195312 C17.68096961 42.94530932 17.67571928 45.38866935 17.671875 47.83203125 C17.6595282 48.98943314 17.6471814 50.14683502 17.63446045 51.33930969 C17.63746155 52.41690048 17.64046265 53.49449127 17.64355469 54.60473633 C17.63990906 55.55214188 17.63626343 56.49954742 17.63250732 57.47566223 C18.07005159 60.48119021 18.90339702 61.82776085 21 64 C29.79142436 66.93047479 41.58876309 66.33708332 49.875 62.375 C57.0511207 58.09134636 60.84578438 53.08202275 63 45 C64.84864242 36.68874812 64.10129554 28.01845563 59.6875 20.625 C53.94968965 12.43527651 46.76296924 7.2116114 37 5 C33.86844391 4.75861064 30.76403257 4.76416806 27.625 4.8125 C26.80644531 4.81314453 25.98789062 4.81378906 25.14453125 4.81445312 C21.25995739 4.46980147 21.25995739 4.46980147 18 6 Z " fill="#DE2626" transform="translate(661,649)"/>
<path d="M0 0 C6.22555982 -0.07461488 12.45085456 -0.1288209 18.67675781 -0.16479492 C20.7910618 -0.17980487 22.90533507 -0.2002192 25.01953125 -0.22631836 C28.07299421 -0.26304633 31.12604257 -0.27980474 34.1796875 -0.29296875 C35.57874832 -0.31619453 35.57874832 -0.31619453 37.006073 -0.33988953 C48.01788443 -0.34266142 57.43714359 2.82220915 65.53125 10.44140625 C72.16115587 17.85962409 74.40484887 26.14771401 74.2734375 35.8984375 C73.41573519 45.62723222 70.01789256 54.1482114 63 61 C53.22901131 69.12760486 43.67800206 70.46459641 31.25341797 70.28125 C29.13621115 70.25016461 27.01975625 70.24026898 24.90234375 70.234375 C17.22517648 70.18990874 9.63037958 69.87100165 2 69 C2 68.01 2 67.02 2 66 C2.639375 65.896875 3.27875 65.79375 3.9375 65.6875 C4.618125 65.460625 5.29875 65.23375 6 65 C7.05946564 61.82160309 7.12064296 59.58154652 7.11352539 56.2434082 C7.11344986 55.06241043 7.11337433 53.88141266 7.11329651 52.66462708 C7.10813522 51.38955795 7.10297394 50.11448883 7.09765625 48.80078125 C7.0962413 47.49545944 7.09482635 46.19013763 7.09336853 44.84526062 C7.0895538 41.37810344 7.07973244 37.91098826 7.06866455 34.44384766 C7.05842798 30.90462818 7.0538661 27.3654019 7.04882812 23.82617188 C7.03810923 16.88409735 7.02104534 9.94205069 7 3 C4.69 2.67 2.38 2.34 0 2 C0 1.34 0 0.68 0 0 Z M18 6 C17.89081729 7.66631753 17.85093226 9.33723296 17.83886719 11.00708008 C17.82925964 12.07521439 17.8196521 13.14334869 17.80975342 14.24385071 C17.80550354 15.40732529 17.80125366 16.57079987 17.796875 17.76953125 C17.79117493 18.95721603 17.78547485 20.14490082 17.77960205 21.36857605 C17.77013399 23.88804224 17.76361094 26.40752091 17.75976562 28.92700195 C17.75006776 32.78553884 17.71906367 36.64354159 17.6875 40.50195312 C17.68096961 42.94530932 17.67571928 45.38866935 17.671875 47.83203125 C17.6595282 48.98943314 17.6471814 50.14683502 17.63446045 51.33930969 C17.63746155 52.41690048 17.64046265 53.49449127 17.64355469 54.60473633 C17.63990906 55.55214188 17.63626343 56.49954742 17.63250732 57.47566223 C18.07005159 60.48119021 18.90339702 61.82776085 21 64 C29.79142436 66.93047479 41.58876309 66.33708332 49.875 62.375 C57.0511207 58.09134636 60.84578438 53.08202275 63 45 C64.84864242 36.68874812 64.10129554 28.01845563 59.6875 20.625 C53.94968965 12.43527651 46.76296924 7.2116114 37 5 C33.86844391 4.75861064 30.76403257 4.76416806 27.625 4.8125 C26.80644531 4.81314453 25.98789062 4.81378906 25.14453125 4.81445312 C21.25995739 4.46980147 21.25995739 4.46980147 18 6 Z " fill="#DE2626" transform="translate(388,649)"/>
<path d="M0 0 C4.24177778 0.29711051 6.59137253 3.19149697 9.39453125 6.06640625 C9.90497482 6.57872299 10.4154184 7.09103973 10.94132996 7.61888123 C12.02145841 8.7057272 13.09798535 9.79616262 14.17114258 10.88989258 C15.78950355 12.53906572 17.41796165 14.17765533 19.04882812 15.81445312 C23.96205046 20.76502474 28.7527645 25.77479491 33.28979492 31.07592773 C36.75798408 34.9778262 40.52971605 38.59070431 44.25 42.25 C45.84089612 43.81531901 47.42952868 45.38294269 49.015625 46.953125 C49.70946289 47.63536133 50.40330078 48.31759766 51.11816406 49.02050781 C52.92388783 50.91993805 54.44750605 52.89283339 56 55 C55.88245729 48.36127713 55.75762474 41.72272025 55.62768555 35.08422852 C55.5843322 32.82514567 55.54265742 30.56602997 55.50268555 28.30688477 C55.44499287 25.06256196 55.38129531 21.8184046 55.31640625 18.57421875 C55.29969376 17.56163498 55.28298126 16.54905121 55.26576233 15.50578308 C55.2358445 14.09465996 55.2358445 14.09465996 55.20532227 12.6550293 C55.18200584 11.41259712 55.18200584 11.41259712 55.15821838 10.14506531 C55.07459277 7.81446753 55.07459277 7.81446753 54 5 C50.48809191 3.77030122 50.48809191 3.77030122 47 3 C47 2.34 47 1.68 47 1 C54.26 1 61.52 1 69 1 C69 1.66 69 2.32 69 3 C67.35 3.33 65.7 3.66 64 4 C63.98969254 4.75088898 63.97938507 5.50177795 63.96876526 6.27542114 C63.87061169 13.36680716 63.76807261 20.45811322 63.66066074 27.54936409 C63.60559831 31.19466389 63.55220599 34.83997193 63.50268555 38.48535156 C63.45479469 42.00617964 63.40244482 45.52691625 63.34705925 49.04763412 C63.31689118 51.03831391 63.29128943 53.0290612 63.26576233 55.01980591 C63.24581711 56.24061859 63.22587189 57.46143127 63.20532227 58.71923828 C63.18977798 59.78957306 63.1742337 60.85990784 63.15821838 61.962677 C62.99788791 65.04054577 62.56563252 67.97258069 62 71 C52.2830924 69.18097373 43.71559526 56.86727888 36.96362305 50.09399414 C34.94235732 48.0673702 32.91580426 46.04614453 30.88867188 44.02539062 C19.4360846 32.57809412 19.4360846 32.57809412 14.62303162 26.85377502 C12.92410915 24.91331989 11.14422689 23.09645122 9.31225586 21.28149414 C8.68967392 20.66335342 8.06709198 20.04521271 7.42564392 19.40834045 C6.71995018 18.71121193 6.71995018 18.71121193 6 18 C6.09367004 24.03257915 6.19979496 30.06476339 6.31738281 36.09692383 C6.35562625 38.14829534 6.39048719 40.19973284 6.421875 42.2512207 C6.46762602 45.20287638 6.52560422 48.15407953 6.5859375 51.10546875 C6.59748871 52.02023483 6.60903992 52.93500092 6.62094116 53.87748718 C6.70170853 60.19913539 6.70170853 60.19913539 9 66 C12.05272465 66.89830839 12.05272465 66.89830839 15 67 C15 67.99 15 68.98 15 70 C7.41 70 -0.18 70 -8 70 C-7.67 69.01 -7.34 68.02 -7 67 C-4.4375 65.8125 -4.4375 65.8125 -2 65 C-1.98969254 64.20042374 -1.97938507 63.40084747 -1.96876526 62.57704163 C-1.87095918 55.05732704 -1.76846935 47.53769807 -1.66066074 40.01812077 C-1.60539645 36.1518399 -1.551971 32.28555152 -1.50268555 28.41918945 C-1.4550935 24.69089913 -1.40275285 20.96270348 -1.34705925 17.23452568 C-1.32661222 15.80913067 -1.30790309 14.38370968 -1.29092598 12.95826912 C-1.26693404 10.96829459 -1.23629864 8.97840345 -1.20532227 6.98852539 C-1.18200584 5.28642662 -1.18200584 5.28642662 -1.15821838 3.54994202 C-1 1 -1 1 0 0 Z " fill="#DE2626" transform="translate(306,648)"/>
<path d="M0 0 C7.11804663 4.9603521 11.79878963 11.65368679 13.93359375 20.08984375 C15.70468917 30.53382913 14.58042643 41.20802281 8.87109375 50.33984375 C3.03378371 58.29588114 -4.68169698 64.40571579 -14.44140625 66.52734375 C-24.55337247 67.36711185 -35.55433818 68.03048975 -44.44140625 62.52734375 C-45.50875 61.87378906 -45.50875 61.87378906 -46.59765625 61.20703125 C-54.43012096 55.85874378 -59.43365273 48.80404434 -61.44140625 39.52734375 C-63.2728137 29.29133777 -62.34880068 19.76170574 -56.81640625 10.77734375 C-43.48096427 -7.32075608 -19.37206036 -11.68522681 0 0 Z M-45.44140625 8.52734375 C-50.36066163 14.41288143 -52.04814524 22.56725651 -51.72265625 30.1484375 C-50.5630786 39.95653183 -47.90546217 48.54541041 -40.44921875 55.34375 C-32.48004818 61.58376092 -25.46872488 62.4075195 -15.44140625 61.52734375 C-8.68516123 59.89686265 -4.20728061 56.30329895 -0.44140625 50.52734375 C4.51873072 41.40458204 5.09311047 30.14943584 2.37109375 20.21484375 C-0.86572394 10.96893395 -5.89098845 4.78581393 -14.734375 0.38671875 C-26.40122814 -3.31704415 -37.49419321 -0.55518544 -45.44140625 8.52734375 Z " fill="#DE2626" transform="translate(191.44140625,653.47265625)"/>
<path d="M0 0 C5.12282759 -0.09945752 10.24508354 -0.17174409 15.36865234 -0.21972656 C17.10866089 -0.23974522 18.84860299 -0.26696886 20.58837891 -0.30175781 C23.10075346 -0.35070952 25.61223275 -0.37306587 28.125 -0.390625 C28.89303955 -0.41127014 29.6610791 -0.43191528 30.45239258 -0.45318604 C36.82951672 -0.45578908 42.19762778 1.32606984 46.875 5.7890625 C50.15938862 11.14900226 51.17624331 15.7706154 50 22 C47.7351925 28.26750811 44.29912119 33.00001367 40 38 C53.47578149 57.01464197 53.47578149 57.01464197 73 68 C73 68.33 73 68.66 73 69 C70.31139069 69.10887507 67.62726842 69.18770594 64.9375 69.25 C64.18533203 69.28351563 63.43316406 69.31703125 62.65820312 69.3515625 C56.34443777 69.46089177 52.14607178 67.98574565 47.53881836 63.61328125 C46.12273974 62.08092564 44.80456703 60.50313035 43.5 58.875 C43.03150635 58.30749023 42.5630127 57.73998047 42.08032227 57.15527344 C38.59099074 52.87713824 35.38049886 48.43743104 32.33984375 43.828125 C31.11757177 41.86834758 31.11757177 41.86834758 29 41 C27.12620395 40.92966231 25.24998898 40.9156978 23.375 40.9375 C21.87066406 40.95103516 21.87066406 40.95103516 20.3359375 40.96484375 C19.56507813 40.97644531 18.79421875 40.98804688 18 41 C17.85474503 49.05358138 18.28586721 56.97875848 19 65 C21.64 65.99 24.28 66.98 27 68 C27 68.33 27 68.66 27 69 C18.75 69 10.5 69 2 69 C2 68.34 2 67.68 2 67 C2.639375 66.896875 3.27875 66.79375 3.9375 66.6875 C4.618125 66.460625 5.29875 66.23375 6 66 C7.06782486 62.79652541 7.12058306 60.51812177 7.11352539 57.15161133 C7.11344986 55.9505928 7.11337433 54.74957428 7.11329651 53.51216125 C7.10813522 52.21521835 7.10297394 50.91827545 7.09765625 49.58203125 C7.09579077 48.24110466 7.09436748 46.90017739 7.09336853 45.55924988 C7.08955356 42.03290927 7.07973199 38.50660996 7.06866455 34.98028564 C7.0584285 31.38074299 7.05386621 27.78119365 7.04882812 24.18164062 C7.0381088 17.12107687 7.02104462 10.06054113 7 3 C4.69 2.67 2.38 2.34 0 2 C0 1.34 0 0.68 0 0 Z M17 6 C16.74619766 10.47331958 16.81477279 14.9578346 16.8125 19.4375 C16.80025391 20.70400391 16.78800781 21.97050781 16.77539062 23.27539062 C16.77345703 24.48259766 16.77152344 25.68980469 16.76953125 26.93359375 C16.76542236 28.04790771 16.76131348 29.16222168 16.75708008 30.31030273 C16.72412828 33.15121961 16.72412828 33.15121961 19 35 C21.49351699 35.28033623 23.81633002 35.41608386 26.3125 35.4375 C27.62863281 35.47746094 28.94476562 35.51742187 30.30078125 35.55859375 C34.83196788 34.87437022 36.2146736 33.55873786 39 30 C40.79234269 24.62297194 41.02611345 18.19545113 39.28125 12.76171875 C37.21829326 8.87703812 34.90022705 6.87057303 31 5 C27.68233961 4.60237281 27.68233961 4.60237281 24.25 4.75 C23.10015625 4.76546875 21.9503125 4.7809375 20.765625 4.796875 C18.09174086 4.69045501 18.09174086 4.69045501 17 6 Z " fill="#DE2626" transform="translate(548,649)"/>
<path d="M0 0 C1.08216797 -0.01224609 2.16433594 -0.02449219 3.27929688 -0.03710938 C10.32242963 -0.04978448 17.09342162 0.42204906 23.9375 2.1875 C24.9375 3.1875 24.9375 3.1875 25.0703125 5.26171875 C25.05610085 10.01551449 24.92172575 14.51242767 23.9375 19.1875 C23.2775 19.1875 22.6175 19.1875 21.9375 19.1875 C21.77894531 18.56101562 21.62039063 17.93453125 21.45703125 17.2890625 C20.1990005 12.2122445 20.1990005 12.2122445 16.625 8.75 C15.738125 8.564375 14.85125 8.37875 13.9375 8.1875 C13.08414063 7.85363281 12.23078125 7.51976562 11.3515625 7.17578125 C3.15827071 4.80403889 -8.3841044 4.56185158 -16.375 7.75 C-22.83406422 11.39686728 -26.84853849 17.1960426 -29.0625 24.1875 C-31.13272685 35.38397687 -29.37898247 45.62437768 -23.0625 55.1875 C-17.88593553 61.21721763 -11.13006414 65.59661144 -3.10205078 66.37841797 C5.84699601 67.10493269 5.84699601 67.10493269 13.9375 64.1875 C14.3539535 61.76650645 14.3539535 61.76650645 14.23046875 58.9609375 C14.22080078 57.9296875 14.21113281 56.8984375 14.20117188 55.8359375 C14.17603516 54.75570312 14.15089844 53.67546875 14.125 52.5625 C14.11146484 51.47453125 14.09792969 50.3865625 14.08398438 49.265625 C14.04854754 46.57242591 13.99914331 43.88020626 13.9375 41.1875 C11.6275 39.8675 9.3175 38.5475 6.9375 37.1875 C6.9375 36.5275 6.9375 35.8675 6.9375 35.1875 C14.8575 35.1875 22.7775 35.1875 30.9375 35.1875 C29.9375 38.1875 29.9375 38.1875 27.875 39.375 C27.235625 39.643125 26.59625 39.91125 25.9375 40.1875 C25.9281543 40.95416992 25.91880859 41.72083984 25.90917969 42.51074219 C25.85547227 45.98698103 25.77182424 49.46187474 25.6875 52.9375 C25.67332031 54.1440625 25.65914062 55.350625 25.64453125 56.59375 C25.61230469 57.75390625 25.58007812 58.9140625 25.546875 60.109375 C25.5154541 61.71184082 25.5154541 61.71184082 25.48339844 63.34667969 C24.80900446 66.85618251 23.73031646 68.01732173 20.9375 70.1875 C9.01490439 74.31051214 -7.99633413 74.29231774 -19.625 69.44140625 C-20.8315625 68.82072266 -20.8315625 68.82072266 -22.0625 68.1875 C-22.8875 67.76339844 -23.7125 67.33929687 -24.5625 66.90234375 C-32.04229709 62.48581882 -36.79473341 55.60341723 -39.53125 47.41015625 C-42.21684642 36.17409476 -41.12664124 25.75910947 -35.66796875 15.578125 C-26.9987568 2.66922546 -14.4781356 0.00841263 0 0 Z " fill="#DE2626" transform="translate(787.0625,647.8125)"/>
<path d="M0 0 C8.25 0 16.5 0 25 0 C25 0.66 25 1.32 25 2 C23.7934375 2.4021875 23.7934375 2.4021875 22.5625 2.8125 C21.716875 3.204375 20.87125 3.59625 20 4 C18.71677029 7.84968914 18.83754795 11.49549877 18.83203125 15.5078125 C18.82870285 16.34786835 18.82537445 17.18792419 18.82194519 18.05343628 C18.81688132 19.83379571 18.8145367 21.61416463 18.81469727 23.39453125 C18.81252502 26.0939138 18.79440332 28.79287803 18.77539062 31.4921875 C18.77245359 33.22656111 18.77047087 34.96093665 18.76953125 36.6953125 C18.76234573 37.49252716 18.75516022 38.28974182 18.74775696 39.1111145 C18.78205599 47.70024279 19.83270585 55.60749567 26 62 C31.47185939 66.24069103 38.39803535 65.7244051 45 65 C49.35507439 63.73416523 52.03471476 61.34534501 54.375 57.5 C56.36292563 53.21831402 57.12642686 50.01937721 57.11352539 45.32324219 C57.11344986 44.40258972 57.11337433 43.48193726 57.11329651 42.53338623 C57.10813522 41.54783752 57.10297394 40.56228882 57.09765625 39.546875 C57.0962413 38.53151672 57.09482635 37.51615845 57.09336853 36.47003174 C57.08777516 33.22999108 57.07522385 29.99001975 57.0625 26.75 C57.05748414 24.55208433 57.05292139 22.35416758 57.04882812 20.15625 C57.0378079 14.77080971 57.02107633 9.38540981 57 4 C54.69 3.34 52.38 2.68 50 2 C50 1.34 50 0.68 50 0 C57.59 0 65.18 0 73 0 C73 0.66 73 1.32 73 2 C72.195625 2.28875 71.39125 2.5775 70.5625 2.875 C67.8673532 3.73262568 67.8673532 3.73262568 67 6 C66.87875597 9.01646131 66.81418458 12.01368957 66.7890625 15.03125 C66.76096664 16.89323755 66.73230204 18.75521658 66.703125 20.6171875 C66.66207297 23.54849765 66.62518428 26.47965358 66.59863281 29.41113281 C66.57076407 32.24317328 66.52486585 35.07449362 66.4765625 37.90625 C66.47330963 38.76706177 66.47005676 39.62787354 66.46670532 40.51477051 C66.28755755 49.52987823 64.34197656 58.28180449 58 65 C48.87451927 72.18388908 38.11681837 72.17367335 27 71 C20.63696329 69.3576796 15.80706069 65.99423909 12.28125 60.40722656 C6.38698454 49.33301592 7.4514349 35.92229668 7.3125 23.75 C7.27926785 21.73305154 7.24477291 19.71612347 7.20898438 17.69921875 C7.12476065 12.79959289 7.05763591 7.90000779 7 3 C4.69 2.67 2.38 2.34 0 2 C0 1.34 0 0.68 0 0 Z " fill="#DE2626" transform="translate(215,649)"/>
<path d="M0 0 C1.27617188 -0.01836914 1.27617188 -0.01836914 2.578125 -0.03710938 C3.40570313 -0.03904297 4.23328125 -0.04097656 5.0859375 -0.04296875 C5.83665527 -0.04707764 6.58737305 -0.05118652 7.36083984 -0.05541992 C9.625 0.1875 9.625 0.1875 14.625 2.1875 C14.625 6.4775 14.625 10.7675 14.625 15.1875 C13.635 15.5175 12.645 15.8475 11.625 16.1875 C11.00651042 14.20182292 10.38802083 12.21614583 9.76953125 10.23046875 C8.18269237 7.39798844 6.5591522 6.53214684 3.625 5.1875 C-1.82898453 4.38245707 -6.75664901 4.23552883 -11.5625 7.0625 C-14.63124267 10.66033624 -14.73205052 13.28536709 -14.63671875 17.890625 C-13.6942473 26.16186702 -4.06951119 32.0458646 1.84375 37.07421875 C9.68449177 43.7840843 15.46477531 49.64695715 16.90625 60.2578125 C17.29867912 68.59693125 13.96892509 74.2814165 8.734375 80.42578125 C2.96379249 85.24528627 -2.7129493 85.6646539 -9.9375 85.5625 C-10.76185547 85.57410156 -11.58621094 85.58570313 -12.43554688 85.59765625 C-17.65455559 85.57262503 -22.45462451 85.10787549 -26.375 81.1875 C-26.47483684 79.27298183 -26.50467589 77.35461381 -26.5 75.4375 C-26.50257812 74.39078125 -26.50515625 73.3440625 -26.5078125 72.265625 C-26.38655348 69.45526878 -26.01284091 66.92110391 -25.375 64.1875 C-24.715 64.1875 -24.055 64.1875 -23.375 64.1875 C-23.20484375 64.86296875 -23.0346875 65.5384375 -22.859375 66.234375 C-21.10561001 73.1112101 -21.10561001 73.1112101 -16.375 78.1875 C-13.21490467 79.24086511 -10.8196864 79.38782888 -7.5 79.4375 C-6.47132812 79.46328125 -5.44265625 79.4890625 -4.3828125 79.515625 C-0.9437215 79.14045144 0.86205952 78.23430179 3.625 76.1875 C6.62178884 71.74398551 7.52766546 67.45988688 6.625 62.1875 C3.09821511 54.14643045 -3.16906842 49.11140708 -9.9375 43.75 C-16.6452787 38.34139272 -22.65315292 32.27283875 -23.7109375 23.35546875 C-23.796546 16.82354037 -23.56019413 11.44332518 -19.375 6.1875 C-13.26940165 0.63695604 -7.98944898 0.00599808 0 0 Z " fill="#DE2626" transform="translate(99.375,634.8125)"/>
<path d="M0 0 C0.07654536 4.51617599 0.10228696 8.59085217 -1 13 C-1.99 12.67 -2.98 12.34 -4 12 C-4.66 10.35 -5.32 8.7 -6 7 C-11.94 6.34 -17.88 5.68 -24 5 C-24 13.58 -24 22.16 -24 31 C-20.9475 30.690625 -17.895 30.38125 -14.75 30.0625 C-13.79448242 29.96718994 -12.83896484 29.87187988 -11.85449219 29.77368164 C-11.09297852 29.69496826 -10.33146484 29.61625488 -9.546875 29.53515625 C-8.77182617 29.456604 -7.99677734 29.37805176 -7.19824219 29.29711914 C-4.67767472 28.99762233 -4.67767472 28.99762233 -1 28 C-1.33 32.62 -1.66 37.24 -2 42 C-2.99 42 -3.98 42 -5 42 C-5.495 39.03 -5.495 39.03 -6 36 C-11.94 35.67 -17.88 35.34 -24 35 C-23.8865873 39.45890972 -23.75982667 43.91673148 -23.625 48.375 C-23.5940625 49.64601563 -23.563125 50.91703125 -23.53125 52.2265625 C-23.49257813 53.43828125 -23.45390625 54.65 -23.4140625 55.8984375 C-23.36693115 57.57945557 -23.36693115 57.57945557 -23.31884766 59.29443359 C-23.26588797 62.14710412 -23.26588797 62.14710412 -21 64 C-18.14139702 64.25214344 -15.4217894 64.3702778 -12.5625 64.375 C-11.78583984 64.39949219 -11.00917969 64.42398438 -10.20898438 64.44921875 C-5.69060763 64.52369691 -5.69060763 64.52369691 -2.02734375 62.1640625 C-0.90022832 59.9026488 -0.90022832 59.9026488 0 57 C0.99 57 1.98 57 3 57 C2.88570603 58.77155654 2.75816963 60.54226229 2.625 62.3125 C2.55539062 63.29863281 2.48578125 64.28476562 2.4140625 65.30078125 C2 68 2 68 0 71 C-1.85327148 71.35644531 -1.85327148 71.35644531 -4.12109375 71.328125 C-5.3882019 71.32135742 -5.3882019 71.32135742 -6.6809082 71.31445312 C-7.5905835 71.29318359 -8.50025879 71.27191406 -9.4375 71.25 C-10.3658667 71.23904297 -11.2942334 71.22808594 -12.25073242 71.21679688 C-21.51255514 71.0724364 -30.75724017 70.59153663 -40 70 C-40 69.01 -40 68.02 -40 67 C-39.360625 66.896875 -38.72125 66.79375 -38.0625 66.6875 C-37.381875 66.460625 -36.70125 66.23375 -36 66 C-34.94053436 62.82160309 -34.87935704 60.58154652 -34.88647461 57.2434082 C-34.88655014 56.06241043 -34.88662567 54.88141266 -34.88670349 53.66462708 C-34.89186478 52.38955795 -34.89702606 51.11448883 -34.90234375 49.80078125 C-34.9037587 48.49545944 -34.90517365 47.19013763 -34.90663147 45.84526062 C-34.9104462 42.37810344 -34.92026756 38.91098826 -34.93133545 35.44384766 C-34.94157202 31.90462818 -34.9461339 28.3654019 -34.95117188 24.82617188 C-34.96189077 17.88409735 -34.97895466 10.94205069 -35 4 C-37.31 3.67 -39.62 3.34 -42 3 C-42 2.34 -42 1.68 -42 1 C-36.34001447 0.85726663 -30.68002089 0.71485812 -25.02001953 0.57275391 C-23.09358498 0.52434123 -21.16715267 0.47583896 -19.24072266 0.42724609 C-16.47559177 0.35751299 -13.71045303 0.28809956 -10.9453125 0.21875 C-10.0806839 0.19687622 -9.2160553 0.17500244 -8.32522583 0.15246582 C-2.22774341 0 -2.22774341 0 0 0 Z " fill="#DE2626" transform="translate(873,648)"/>
<path d="M0 0 C7.59 0 15.18 0 23 0 C22.67 0.99 22.34 1.98 22 3 C20.68 3 19.36 3 18 3 C17.97685524 10.91886714 17.959074 18.8377202 17.94818783 26.75661278 C17.94296368 30.43345711 17.9358745 34.11027834 17.92456055 37.78710938 C17.91371507 41.3337896 17.90771963 44.88044757 17.90512276 48.4271431 C17.90327151 49.78196183 17.89965662 51.13677931 17.89426994 52.49158859 C17.88703762 54.38549365 17.88659176 56.27942098 17.88647461 58.17333984 C17.88314369 59.79216568 17.88314369 59.79216568 17.87974548 61.44369507 C17.82676584 63.99077346 17.82676584 63.99077346 19 66 C21.3140622 66.73075648 23.64828869 67.40138258 26 68 C26 68.33 26 68.66 26 69 C17.75 69 9.5 69 1 69 C1 68.34 1 67.68 1 67 C1.639375 66.87625 2.27875 66.7525 2.9375 66.625 C3.9584375 66.315625 3.9584375 66.315625 5 66 C6.35144654 63.29710692 6.11975165 61.19930194 6.11352539 58.17333984 C6.11344986 56.95222504 6.11337433 55.73111023 6.11329651 54.47299194 C6.10818952 53.13564005 6.10297352 51.79828857 6.09765625 50.4609375 C6.0957914 49.09616141 6.09436781 47.73138466 6.09336853 46.36660767 C6.08954863 42.77284907 6.07972283 39.17913083 6.06866455 35.58538818 C6.05843911 31.91891018 6.05386848 28.25242565 6.04882812 24.5859375 C6.0381001 17.39060659 6.02102999 10.19530895 6 3 C4.35 3 2.7 3 1 3 C0.67 2.01 0.34 1.02 0 0 Z " fill="#DE2626" transform="translate(622,649)"/>
</svg>
